<?xml version="1.0" encoding="UTF-8" standalone="no"?>
<!-- Created with Inkscape (http://www.inkscape.org/) -->

<svg
   xmlns:dc="http://purl.org/dc/elements/1.1/"
   xmlns:cc="http://creativecommons.org/ns#"
   xmlns:rdf="http://www.w3.org/1999/02/22-rdf-syntax-ns#"
   xmlns:svg="http://www.w3.org/2000/svg"
   xmlns="http://www.w3.org/2000/svg"
   xmlns:xlink="http://www.w3.org/1999/xlink"
   xmlns:sodipodi="http://sodipodi.sourceforge.net/DTD/sodipodi-0.dtd"
   xmlns:inkscape="http://www.inkscape.org/namespaces/inkscape"
   width="22.700098mm"
   height="20.531666mm"
   viewBox="0 0 22.700098 20.531666"
   version="1.1"
   id="svg8"
   inkscape:version="0.92.4 (5da689c313, 2019-01-14)"
   sodipodi:docname="people.svg">
  <defs
     id="defs2">
    <linearGradient
       inkscape:collect="always"
       id="linearGradient4605">
      <stop
         style="stop-color:#ff0000;stop-opacity:1"
         offset="0"
         id="stop4601" />
      <stop
         style="stop-color:#ff6600;stop-opacity:1"
         offset="1"
         id="stop4603" />
    </linearGradient>
    <linearGradient
       inkscape:collect="always"
       xlink:href="#linearGradient4605"
       id="linearGradient4607"
       x1="5.0985656"
       y1="48"
       x2="90.894211"
       y2="48"
       gradientUnits="userSpaceOnUse" />
    <linearGradient
       inkscape:collect="always"
       xlink:href="#linearGradient4605"
       id="linearGradient4609"
       gradientUnits="userSpaceOnUse"
       x1="5.0985656"
       y1="48"
       x2="90.894211"
       y2="48" />
    <linearGradient
       inkscape:collect="always"
       xlink:href="#linearGradient4605"
       id="linearGradient4611"
       gradientUnits="userSpaceOnUse"
       x1="5.0985656"
       y1="48"
       x2="90.894211"
       y2="48" />
    <linearGradient
       inkscape:collect="always"
       xlink:href="#linearGradient4605"
       id="linearGradient4613"
       gradientUnits="userSpaceOnUse"
       x1="5.0985656"
       y1="48"
       x2="90.894211"
       y2="48" />
    <linearGradient
       inkscape:collect="always"
       xlink:href="#linearGradient4605"
       id="linearGradient4615"
       gradientUnits="userSpaceOnUse"
       x1="5.0985656"
       y1="48"
       x2="90.894211"
       y2="48" />
    <linearGradient
       inkscape:collect="always"
       xlink:href="#linearGradient4605"
       id="linearGradient4617"
       gradientUnits="userSpaceOnUse"
       x1="5.0985656"
       y1="48"
       x2="90.894211"
       y2="48" />
    <linearGradient
       inkscape:collect="always"
       xlink:href="#linearGradient4605"
       id="linearGradient4619"
       gradientUnits="userSpaceOnUse"
       x1="5.0985656"
       y1="48"
       x2="90.894211"
       y2="48" />
  </defs>
  <sodipodi:namedview
     id="base"
     pagecolor="#ffffff"
     bordercolor="#666666"
     borderopacity="1.0"
     inkscape:pageopacity="0.0"
     inkscape:pageshadow="2"
     inkscape:zoom="3.959798"
     inkscape:cx="8.6035505"
     inkscape:cy="19.933595"
     inkscape:document-units="mm"
     inkscape:current-layer="layer1"
     showgrid="false"
     inkscape:window-width="1600"
     inkscape:window-height="837"
     inkscape:window-x="-8"
     inkscape:window-y="-8"
     inkscape:window-maximized="1" />
  <metadata
     id="metadata5">
    <rdf:RDF>
      <cc:Work
         rdf:about="">
        <dc:format>image/svg+xml</dc:format>
        <dc:type
           rdf:resource="http://purl.org/dc/dcmitype/StillImage" />
        <dc:title></dc:title>
      </cc:Work>
    </rdf:RDF>
  </metadata>
  <g
     inkscape:label="Layer 1"
     inkscape:groupmode="layer"
     id="layer1"
     transform="translate(-122.45353,-102.28179)">
    <g
       id="g3725"
       transform="matrix(0.26458333,0,0,0.26458333,121.10453,99.847619)"
       style="fill:url(#linearGradient4607);fill-opacity:1">
      <circle
         id="circle3713"
         r="7"
         cy="16.200001"
         cx="73"
         style="fill:url(#linearGradient4609);fill-opacity:1" />
      <circle
         id="circle3715"
         r="7"
         cy="16.200001"
         cx="23"
         style="fill:url(#linearGradient4611);fill-opacity:1" />
      <circle
         id="circle3717"
         r="7"
         cy="16.200001"
         cx="48"
         style="fill:url(#linearGradient4613);fill-opacity:1" />
      <path
         id="path3719"
         d="M 65.8,48.8 61.3,32.2 c -0.2,-0.6 -0.5,-1.2 -0.9,-1.6 -1.9,-2 -4.3,-3.5 -6.9,-4.4 -1.7,-0.6 -3.5,-0.9 -5.4,-0.9 -1.9,0 -3.7,0.3 -5.4,0.9 -2.7,0.9 -5,2.4 -6.9,4.4 -0.4,0.5 -0.7,1 -0.9,1.6 l -4.5,16.6 c -0.4,1.6 0.4,3.4 2.1,3.8 0.3,0.1 0.5,0.1 0.8,0.1 1.3,0 2.5,-0.9 2.9,-2.2 l 4,-14.6 v 50.9 h 6 V 58.2 h 4 v 28.5 h 6 V 35.9 l 4,14.6 c 0.4,1.3 1.6,2.2 2.9,2.2 0.3,0 0.5,0 0.8,-0.1 1.4,-0.4 2.3,-2.2 1.9,-3.8 z"
         inkscape:connector-curvature="0"
         style="fill:url(#linearGradient4615);fill-opacity:1" />
      <path
         id="path3721"
         d="M 28.3,48.3 32.8,31.7 C 33,30.8 33.5,30 34,29.3 c -1.6,-1.4 -3.6,-2.5 -5.7,-3.2 -1.7,-0.6 -3.5,-0.9 -5.4,-0.9 -1.9,0 -3.7,0.3 -5.4,0.9 -2.7,0.9 -5,2.4 -6.9,4.4 -0.4,0.5 -0.7,1 -0.9,1.6 L 5.2,48.8 c -0.4,1.6 0.4,3.4 2.1,3.8 0.3,0.1 0.5,0.1 0.8,0.1 1.3,0 2.5,-0.9 2.9,-2.2 l 4,-14.6 v 50.9 h 6 V 58.2 h 4 v 28.5 h 6 V 54.3 c -2.1,-1 -3.3,-3.5 -2.7,-6 z"
         inkscape:connector-curvature="0"
         style="fill:url(#linearGradient4617);fill-opacity:1" />
      <path
         id="path3723"
         d="M 90.8,48.8 86.2,32.2 C 86,31.6 85.7,31 85.3,30.6 83.4,28.6 81,27.1 78.4,26.2 76.7,25.6 74.9,25.3 73,25.3 c -1.9,0 -3.7,0.3 -5.4,0.9 -2.1,0.7 -4,1.8 -5.7,3.2 0.6,0.7 1,1.5 1.2,2.3 l 4.5,16.6 c 0.7,2.5 -0.6,5 -2.7,6 v 32.5 h 6 V 58.2 h 4 v 28.5 h 6 V 35.9 l 4,14.6 c 0.4,1.3 1.6,2.2 2.9,2.2 0.3,0 0.5,0 0.8,-0.1 1.7,-0.4 2.6,-2.2 2.2,-3.8 z"
         inkscape:connector-curvature="0"
         style="fill:url(#linearGradient4619);fill-opacity:1" />
    </g>
  </g>
</svg>
