<?xml version="1.0" encoding="UTF-8" standalone="no"?>
<!-- Created with Inkscape (http://www.inkscape.org/) -->

<svg
   xmlns:dc="http://purl.org/dc/elements/1.1/"
   xmlns:cc="http://creativecommons.org/ns#"
   xmlns:rdf="http://www.w3.org/1999/02/22-rdf-syntax-ns#"
   xmlns:svg="http://www.w3.org/2000/svg"
   xmlns="http://www.w3.org/2000/svg"
   xmlns:xlink="http://www.w3.org/1999/xlink"
   xmlns:sodipodi="http://sodipodi.sourceforge.net/DTD/sodipodi-0.dtd"
   xmlns:inkscape="http://www.inkscape.org/namespaces/inkscape"
   width="22.700098mm"
   height="20.531666mm"
   viewBox="0 0 22.700098 20.531666"
   version="1.1"
   id="svg8"
   inkscape:version="0.92.4 (5da689c313, 2019-01-14)"
   sodipodi:docname="shadow.svg">
  <defs
     id="defs2">
    <linearGradient
       inkscape:collect="always"
       id="linearGradient4694">
      <stop
         style="stop-color:#ff0000;stop-opacity:1"
         offset="0"
         id="stop4690" />
      <stop
         style="stop-color:#ff6600;stop-opacity:1"
         offset="1"
         id="stop4692" />
    </linearGradient>
    <linearGradient
       inkscape:collect="always"
       xlink:href="#linearGradient4694"
       id="linearGradient4696"
       x1="125.71129"
       y1="112.72391"
       x2="142.18078"
       y2="112.72391"
       gradientUnits="userSpaceOnUse" />
  </defs>
  <sodipodi:namedview
     id="base"
     pagecolor="#ffffff"
     bordercolor="#666666"
     borderopacity="1.0"
     inkscape:pageopacity="0.0"
     inkscape:pageshadow="2"
     inkscape:zoom="3.959798"
     inkscape:cx="8.6035505"
     inkscape:cy="19.933595"
     inkscape:document-units="mm"
     inkscape:current-layer="layer1"
     showgrid="false"
     inkscape:window-width="1280"
     inkscape:window-height="737"
     inkscape:window-x="-8"
     inkscape:window-y="-8"
     inkscape:window-maximized="1" />
  <metadata
     id="metadata5">
    <rdf:RDF>
      <cc:Work
         rdf:about="">
        <dc:format>image/svg+xml</dc:format>
        <dc:type
           rdf:resource="http://purl.org/dc/dcmitype/StillImage" />
        <dc:title></dc:title>
      </cc:Work>
    </rdf:RDF>
  </metadata>
  <g
     inkscape:label="Layer 1"
     inkscape:groupmode="layer"
     id="layer1"
     transform="translate(-122.45353,-102.28179)">
    <path
       id="path4680"
       d="m 141.78684,117.28178 c 0.545,-0.54536 0.52162,-1.40732 -0.0522,-1.92525 -0.26572,-0.23985 -0.61802,-0.37381 -0.98446,-0.37438 h -0.0342 -0.26245 0.0314 c 0.75972,-0.21074 1.19581,-0.96688 0.97406,-1.68887 -0.21174,-0.68939 -0.95042,-1.10402 -1.68794,-0.94749 l -3.64548,0.88793 c 0.40418,-0.36166 0.74012,-0.70336 0.96583,-0.9403 l 3.69796,-1.2471 c 0.47181,-0.15911 0.71858,-0.65155 0.55117,-1.09993 -0.16743,-0.44838 -0.68562,-0.68288 -1.15743,-0.52377 l -3.46176,1.16478 4.0654,-2.68873 c 0.41773,-0.26377 0.53136,-0.79941 0.2538,-1.1964 -0.27755,-0.39697 -0.84117,-0.50493 -1.25889,-0.24118 -0.0112,0.006 -0.0212,0.0137 -0.0317,0.0208 l -3.54313,2.34702 2.98674,-3.24991 c 0.30926,-0.37521 0.23996,-0.91764 -0.15486,-1.21156 -0.36594,-0.27241 -0.88925,-0.23824 -1.21254,0.0791 l -3.19668,3.49186 2.17311,-3.87345 c 0.21396,-0.43107 0.0196,-0.94535 -0.43391,-1.14868 -0.42261,-0.18945 -0.92747,-0.0432 -1.16706,0.33806 l -2.62453,4.65414 c -0.44112,0.40731 -0.92481,0.77086 -1.44349,1.08497 v -0.0574 c 0.17847,-1.32939 -0.0446,-2.83089 -0.74275,-3.80113 -0.26525,-0.36849 -0.79459,-0.46284 -1.18236,-0.21076 -0.38774,0.25209 -0.48702,0.75514 -0.22176,1.12363 0.33332,0.46143 0.20471,1.42169 0.0656,2.43681 -0.15222,1.24959 -0.35694,2.7461 0.16798,4.17276 l -1.67184,1.82077 h -1.31227 c -0.2899,0 -0.52491,0.22332 -0.52491,0.49883 v 3.74127 c 0,0.2755 0.23501,0.49883 0.52491,0.49883 h 2.38046 c 1.12592,1.40672 4.19925,1.5489 5.37242,1.5489 h 0.0263 l 3.34103,1.69104 c 0.20611,0.10385 0.43598,0.15781 0.66926,0.15715 0.79142,-2.3e-4 1.4328,-0.61014 1.43256,-1.36226 -1.5e-4,-0.43768 -0.22165,-0.84864 -0.59534,-1.10449 l 1.04982,0.22946 c 0.77124,0.16132 1.53512,-0.2985 1.7112,-1.03009 0.17127,-0.73319 -0.31323,-1.46008 -1.08394,-1.62622 h -0.0525 0.26246 c 0.39433,-0.005 0.76925,-0.16353 1.03668,-0.43897 z m -5.56402,-0.47389 c -0.28991,-0.0269 -0.54781,0.17468 -0.57609,0.4502 -0.0283,0.2755 0.18383,0.52061 0.47375,0.54746 l 4.21237,0.88045 c 0.2056,0.0446 0.33536,0.23797 0.29132,0.43398 -0.0233,0.0933 -0.0834,0.17458 -0.16798,0.22699 -0.0854,0.0526 -0.18969,0.0697 -0.28869,0.0474 l -4.83439,-1.0251 c -0.28241,-0.0623 -0.56445,0.10482 -0.63002,0.3731 -0.054,0.22131 0.056,0.44935 0.26783,0.55473 l 3.24656,1.63369 c 0.19345,0.0816 0.28074,0.29666 0.19498,0.48051 -0.0858,0.18383 -0.31218,0.2668 -0.50563,0.18526 -0.017,-0.007 -0.0333,-0.0154 -0.0489,-0.0248 l -3.46701,-1.74592 c -0.0761,-0.038 -0.16077,-0.0577 -0.2467,-0.0574 v 0 c -1.99202,0.025 -4.25438,-0.36665 -4.77403,-1.287 -0.0916,-0.16132 -0.26902,-0.26189 -0.46192,-0.26189 h -2.14949 v -2.7436 h 1.78993 c 0.19348,-5e-4 0.37098,-0.10213 0.46191,-0.26438 0.67189,-1.18973 1.85031,-1.98038 2.887,-2.67376 l 0.0945,-0.0648 c 1.0052,-0.67343 1.87393,-1.24709 2.05239,-1.99535 0.0416,-0.16582 0.21644,-0.26847 0.39105,-0.22945 0.0846,0.017 0.15782,0.0667 0.2021,0.13718 0.0463,0.0697 0.0614,0.15411 0.042,0.23446 -0.23095,0.94029 -1.11017,2.03524 -2.23873,2.79098 l -0.0184,0.0374 -0.0236,0.0149 c -0.23954,0.15515 -0.30137,0.4655 -0.13807,0.69316 0.0719,0.10017 0.17976,0.17214 0.30342,0.20225 0.63053,0.16144 1.27702,0.26009 1.92904,0.29432 0.0512,9.4e-4 0.10233,-0.004 0.15222,-0.0151 l 5.37505,-1.31442 c 0.0976,-0.0245 0.20151,-0.011 0.2887,0.0374 0.0878,0.0483 0.15123,0.12845 0.17584,0.22198 0.0555,0.19135 -0.0616,0.38951 -0.26246,0.44396 l -4.4617,1.09245 c -0.2812,0.0669 -0.45204,0.33792 -0.38155,0.60515 0.0586,0.22227 0.26903,0.37801 0.51014,0.37757 h 0.013 l 4.85802,-0.10971 v 0 c 0.2109,0.0166 0.36766,0.1926 0.35018,0.39299 -0.0155,0.17738 -0.16358,0.3181 -0.35018,0.33281 z"
       inkscape:connector-curvature="0"
       style="stroke-width:0.25585282;fill-opacity:1;fill:url(#linearGradient4696)" />
  </g>
</svg>
